<?xml version="1.0" encoding="utf-8"?>
<!-- Generator: Adobe Illustrator 20.1.0, SVG Export Plug-In . SVG Version: 6.00 Build 0)  -->
<svg version="1.1" id="Layer_1" xmlns="http://www.w3.org/2000/svg" xmlns:xlink="http://www.w3.org/1999/xlink" x="0px" y="0px"
	 viewBox="0 0 16.7 15.4" style="enable-background:new 0 0 16.7 15.4;" xml:space="preserve">
<style type="text/css">
	.st0{opacity:0.65;fill:#FFFFFF;}
</style>
<path class="st0" d="M16.7,13.3l-1.5-1.3c0.7-1.4,1.1-3,1.1-4.6c0.1-2.9-1.1-5.6-3.2-7.5l-1.3,1.5c1.7,1.5,2.6,3.7,2.6,6
	c0,1.1-0.2,2.2-0.7,3.3l-0.8-0.7C13,9,13.2,8.2,13.2,7.3c0-2.1-0.8-4.1-2.2-5.5L9.5,3.2c1.1,1.1,1.7,2.6,1.6,4.1
	c0,0.4,0,0.7-0.1,1.1L7.9,5.6l0-4.5l-2.9,2L1.7,0.2L0.1,2.1L3,4.6L2.8,4.7l-1.9,0C0.4,4.7,0.1,5,0,5.4l0,3.6c0,0.5,0.4,0.8,0.8,0.8
	c0,0,0,0,0,0l1.9,0l5.1,3.5l0-4.5l2.1,1.8c-0.2,0.3-0.4,0.5-0.7,0.7l1.3,1.5c0.3-0.3,0.6-0.6,0.8-0.9l0.7,0.6
	c-0.2,0.3-0.5,0.5-0.8,0.7l1.3,1.6c0.4-0.3,0.7-0.6,1-1l1.3,1.2L16.7,13.3z"/>
</svg>
