<svg xmlns="http://www.w3.org/2000/svg" xmlns:xlink="http://www.w3.org/1999/xlink" viewBox="8264.422 3491.61 28.434 28.236"
  width="80" height="80">
  <defs>
    <style>
      .cls-1 {
        fill: #0ba2d5;
      }

      .cls-2 {
        fill: #fff;
      }

      .cls-3 {
        filter: url(#Path_555);
      }
    </style>
    <filter id="Path_555" x="8264.422" y="3491.61" width="88.434" height="68.236" filterUnits="userSpaceOnUse">
      <feOffset dy="3" input="SourceAlpha"/>
      <feGaussianBlur stdDeviation="3" result="blur"/>
      <feFlood flood-opacity="0.161"/>
      <feComposite operator="in" in2="blur"/>
      <feComposite in="SourceGraphic"/>
    </filter>
  </defs>
  <g id="Group_757" data-name="Group 757" transform="translate(7570 2699)">
    <!--
    <g id="Group_463" data-name="Group 463" transform="translate(703.422 798.61)">
      <g class="cls-3" transform="matrix(1, 0, 0, 1, -8273.42, -3497.61)">
        <path id="Path_555-2" data-name="Path 555" class="cls-1" d="M25.118,0h20.2a25.118,25.118,0,0,1,0,50.236h-20.2A25.118,25.118,0,0,1,25.118,0Z" transform="translate(8273.42 3497.61)"/>
      </g>
    </g>
    -->
    <path id="Path_99938" data-name="Path 99938" class="cls-2" d="M702.158,753.728a15.678,15.678,0,0,0,15.785-15.785q0-.36-.016-.717a11.282,11.282,0,0,0,2.767-2.873,11.064,11.064,0,0,1-3.186.873,5.568,5.568,0,0,0,2.44-3.069,11.128,11.128,0,0,1-3.523,1.347,5.553,5.553,0,0,0-9.454,5.059,15.753,15.753,0,0,1-11.436-5.8,5.553,5.553,0,0,0,1.718,7.407,5.507,5.507,0,0,1-2.513-.694c0,.023,0,.046,0,.071a5.55,5.55,0,0,0,4.451,5.438,5.54,5.54,0,0,1-2.506.1,5.554,5.554,0,0,0,5.183,3.853,11.13,11.13,0,0,1-6.891,2.375,11.273,11.273,0,0,1-1.323-.077,15.7,15.7,0,0,0,8.5,2.492" transform="translate(3.492 66.249)"/>
  </g>
</svg>
